<?xml version="1.0" standalone="no"?>
<!DOCTYPE svg PUBLIC "-//W3C//DTD SVG 20010904//EN"
 "http://www.w3.org/TR/2001/REC-SVG-20010904/DTD/svg10.dtd">
<svg version="1.0" xmlns="http://www.w3.org/2000/svg"
 width="300.000000pt" height="300.000000pt" viewBox="0 0 300.000000 300.000000"
 preserveAspectRatio="xMidYMid meet">
<metadata>
Created by potrace 1.11, written by Peter Selinger 2001-2013
</metadata>
<g transform="translate(0.000000,300.000000) scale(0.100000,-0.100000)"
fill="#000000" stroke="none">
<path d="M1123 2433 l67 -69 0 -122 0 -122 -480 -2 -480 -3 75 -59 75 -59 0
-223 0 -222 -52 -11 c-63 -14 -112 -49 -138 -101 -25 -48 -25 -58 -2 -37 31
28 106 57 150 57 41 0 43 -1 40 -27 -2 -23 -9 -28 -43 -35 -56 -11 -115 -39
-115 -53 0 -9 18 -5 58 11 31 13 67 24 80 24 l22 0 0 -225 0 -224 -70 -56
c-39 -31 -70 -58 -70 -60 0 -3 252 -5 561 -5 l561 0 -51 59 c-28 32 -51 61
-51 65 0 3 17 6 38 6 34 0 44 -7 100 -70 l63 -69 -16 -31 -16 -30 -564 0
c-498 0 -564 -2 -559 -15 5 -13 78 -15 568 -15 l563 0 26 47 25 47 -61 66 -61
65 157 5 157 5 -85 100 -85 100 0 240 0 240 150 0 149 0 29 -46 c52 -81 146
-129 327 -168 219 -48 308 -84 369 -151 49 -55 66 -97 66 -165 0 -68 -23 -118
-78 -167 -57 -52 -99 -63 -232 -63 -96 0 -124 4 -172 23 -110 44 -206 161
-224 271 -4 23 -11 40 -17 38 -5 -1 -19 -30 -32 -62 -25 -68 -94 -205 -124
-250 -31 -45 -27 -56 12 -37 60 30 130 27 282 -12 194 -51 310 -63 406 -43
105 21 165 52 235 122 78 77 106 145 108 260 1 106 -21 169 -85 239 -72 79
-156 119 -366 173 -98 24 -198 55 -223 68 l-45 23 28 11 c23 9 33 8 50 -4 31
-22 44 -19 16 4 l-23 18 29 26 c17 15 33 27 37 27 17 1 88 126 99 175 11 49
15 55 33 49 38 -12 81 -36 124 -71 49 -40 55 -32 12 15 -27 30 -120 82 -147
82 -6 0 -9 9 -6 20 3 11 10 20 17 20 23 0 113 -60 148 -98 31 -35 78 -133 78
-164 0 -26 21 12 70 127 28 66 62 137 76 157 13 21 24 40 24 43 0 3 -16 -2
-36 -10 -49 -20 -110 -19 -202 4 -43 11 -100 23 -128 27 -50 6 -52 8 -64 48
-16 53 -43 104 -73 139 -34 38 -43 34 -14 -5 30 -40 62 -103 71 -140 6 -27 5
-28 -34 -28 -35 0 -40 3 -40 23 0 40 -58 143 -106 187 -25 23 -73 55 -107 70
-116 54 -179 61 -567 67 l-355 5 68 -69z m644 -68 c102 -35 170 -117 180 -219
l5 -52 -64 -64 c-51 -52 -69 -77 -85 -125 -19 -59 -20 -60 -69 -73 -27 -7 -88
-16 -136 -19 l-88 -6 0 243 0 242 133 -4 c110 -3 140 -7 181 -26 38 -17 46
-19 35 -5 -32 38 -93 53 -238 60 l-141 6 0 -256 0 -257 -30 0 -30 0 0 291 0
291 148 -4 c104 -4 162 -11 199 -23z m503 -330 c0 -22 -4 -25 -40 -25 -32 0
-40 4 -40 18 0 26 9 32 47 32 29 0 33 -3 33 -25z m-1288 -33 c50 -25 84 -63
119 -136 13 -25 26 -46 29 -46 3 0 17 26 32 58 l26 57 1 -67 1 -66 -52 -7
c-99 -14 -142 -48 -227 -178 l-43 -67 -94 0 -94 0 0 201 0 201 139 -4 c139 -3
140 -3 186 -35 52 -37 57 -39 49 -18 -21 53 -176 91 -321 79 l-83 -6 0 -209 0
-209 -35 0 -35 0 0 241 0 241 178 -4 c161 -3 181 -5 224 -26z m1282 -39 c-13
-62 -66 -153 -111 -192 -25 -23 -49 -38 -54 -35 -5 3 -16 19 -25 35 -15 30
-14 31 29 79 25 28 53 70 63 95 18 43 21 45 62 45 41 0 42 -1 36 -27z m-211
-204 c22 -39 22 -46 -4 -54 -14 -5 -28 0 -45 16 -30 28 -30 43 -1 57 31 15 30
15 50 -19z m-865 -76 c3 -33 3 -33 -42 -33 -24 0 -51 -3 -59 -6 -11 -4 -16 4
-19 30 -5 42 1 46 67 43 49 -2 50 -3 53 -34z m602 18 c0 -11 3 -26 6 -35 5
-14 -12 -16 -155 -16 l-161 0 0 -252 0 -253 70 -82 c39 -45 70 -84 70 -87 0
-3 -63 -6 -140 -6 l-139 0 -16 30 -16 30 123 0 123 1 -68 62 -68 62 1 277 0
277 128 3 c70 2 153 4 185 6 51 3 57 1 57 -17z m-750 -40 c0 -25 -5 -41 -15
-45 -8 -3 -15 -10 -15 -15 0 -6 7 -8 15 -5 13 5 15 -17 15 -164 0 -142 2 -171
15 -176 13 -5 15 19 15 178 0 207 -5 196 83 196 l37 0 0 -235 0 -234 -75 -63
c-75 -62 -76 -63 -45 -66 38 -4 38 -12 -2 -52 -66 -64 -153 -90 -305 -90 l-83
0 0 245 0 245 106 0 c94 0 105 2 94 15 -10 12 -37 15 -121 15 l-109 0 0 -260
0 -260 -35 0 -35 0 0 285 0 285 143 0 143 0 60 -82 59 -83 3 190 c2 164 5 192
19 203 27 19 33 15 33 -27z m262 -661 l17 -30 -43 0 c-36 0 -45 4 -54 25 -16
35 -17 35 26 35 31 0 40 -5 54 -30z"/>
<path d="M2675 1925 c-54 -106 -76 -158 -69 -165 7 -7 27 25 64 102 30 62 67
134 81 160 25 41 27 58 10 58 -3 0 -42 -70 -86 -155z"/>
<path d="M1870 1469 c0 -21 62 -68 118 -89 31 -12 127 -40 212 -62 215 -54
248 -66 303 -104 53 -38 62 -31 17 15 -39 38 -96 59 -321 117 -187 47 -259 75
-293 113 -21 23 -36 27 -36 10z"/>
<path d="M2780 1373 c62 -98 67 -258 12 -373 -59 -124 -199 -231 -339 -260
-93 -20 -257 -7 -403 30 -137 35 -258 43 -299 21 -32 -18 -13 -35 23 -21 51
19 142 11 288 -26 308 -77 513 -40 668 122 115 120 154 273 108 424 -13 42
-58 118 -75 124 -7 3 1 -16 17 -41z"/>
<path d="M1966 1152 c-8 -14 29 -109 58 -147 28 -37 101 -95 119 -95 5 0 -14
21 -43 47 -48 43 -110 144 -110 180 0 15 -17 26 -24 15z"/>
<path d="M2311 1064 c0 -11 3 -14 6 -6 3 7 2 16 -1 19 -3 4 -6 -2 -5 -13z"/>
</g>
</svg>
