<?xml version="1.0" standalone="no"?>
<!DOCTYPE svg PUBLIC "-//W3C//DTD SVG 20010904//EN"
 "http://www.w3.org/TR/2001/REC-SVG-20010904/DTD/svg10.dtd">
<svg version="1.0" xmlns="http://www.w3.org/2000/svg"
 width="945.000000pt" height="945.000000pt" viewBox="0 0 945.000000 945.000000"
 preserveAspectRatio="xMidYMid meet">
<metadata>
Created by potrace 1.11, written by Peter Selinger 2001-2013
</metadata>
<g transform="translate(0.000000,945.000000) scale(0.100000,-0.100000)"
fill="#000000" stroke="none">
<path d="M4695 8223 c-122 -63 -275 -278 -331 -463 l-17 -58 -48 96 c-50 102
-114 185 -188 243 -69 54 -76 55 -46 8 76 -123 135 -282 150 -403 l7 -56 82 0
c44 -1 101 -5 126 -10 54 -10 55 -8 65 73 11 97 72 294 125 402 55 113 125
200 140 175 23 -36 35 -133 34 -270 0 -155 -15 -252 -60 -382 -13 -39 -23 -72
-21 -73 1 0 27 -12 57 -25 30 -14 90 -49 133 -78 51 -34 79 -48 82 -40 2 7 14
47 26 88 45 155 143 316 260 424 33 31 56 56 50 56 -25 0 -124 -44 -177 -79
-98 -64 -165 -136 -224 -242 l-31 -54 8 40 c4 22 8 101 7 175 -1 152 -24 271
-70 362 -29 58 -71 118 -82 118 -4 -1 -29 -13 -57 -27z"/>
<path d="M4135 7473 c-105 -15 -249 -74 -325 -133 -29 -22 -48 -28 -107 -32
-125 -9 -239 -85 -294 -195 -34 -68 -34 -188 0 -253 24 -47 59 -90 72 -90 5 0
10 40 11 89 l3 89 75 -20 c135 -35 267 -106 347 -190 104 -108 173 -297 208
-568 31 -244 35 -480 35 -2046 0 -1287 -2 -1574 -13 -1574 -32 0 -176 81 -220
124 -82 80 -135 221 -157 421 -6 53 -10 480 -10 1035 0 557 -4 1002 -10 1085
-12 150 -47 347 -81 448 -90 263 -271 426 -578 516 -127 38 -147 39 -96 4 131
-89 223 -223 285 -416 65 -202 62 -128 70 -1822 3 -847 7 -1541 8 -1542 1 -2
182 -3 402 -3 l400 0 0 -600 0 -600 200 0 201 0 -4 2412 c-3 2205 -5 2424 -20
2538 -64 468 -172 697 -397 845 -70 46 -117 68 -194 92 -27 8 -45 18 -40 23
17 16 135 49 214 60 180 25 414 -44 546 -160 88 -77 176 -225 214 -362 29
-103 57 -281 70 -431 6 -84 10 -967 10 -2573 l0 -2444 205 0 205 0 0 595 0
595 399 0 398 0 10 1588 c9 1403 13 1597 27 1672 23 117 52 202 95 274 35 59
140 174 211 230 l35 27 -48 -5 c-143 -16 -379 -127 -492 -232 -80 -74 -143
-200 -180 -362 -47 -200 -48 -228 -55 -1397 -6 -973 -9 -1120 -23 -1192 -48
-236 -124 -345 -294 -419 l-78 -33 -6 1792 c-6 1821 -6 1841 -45 2112 -28 200
-90 404 -159 521 -28 47 -135 175 -195 233 -132 126 -347 231 -546 266 -80 14
-218 18 -289 8z"/>
<path d="M1655 6494 c-400 -31 -615 -137 -728 -360 -24 -47 -94 -251 -117
-342 -6 -24 -14 -50 -17 -58 -10 -26 14 -14 113 59 141 103 229 159 322 206
76 38 157 69 231 87 82 21 369 30 471 15 229 -34 386 -142 475 -326 71 -147
77 -190 83 -587 3 -244 1 -348 -6 -348 -6 0 -40 7 -76 15 -105 24 -276 34
-420 24 -312 -22 -574 -132 -779 -328 -290 -277 -448 -845 -357 -1286 45 -220
162 -431 335 -601 83 -82 135 -119 234 -169 161 -81 320 -111 545 -102 200 8
356 46 477 118 26 15 50 25 53 22 3 -4 6 -37 6 -75 l0 -68 225 0 225 0 0 1533
c0 1666 2 1609 -56 1812 -119 416 -425 673 -884 744 -76 12 -283 20 -355 15z
m788 -1960 l47 -7 3 -421 c3 -652 -3 -760 -55 -920 -102 -315 -337 -469 -634
-415 -174 31 -350 172 -436 349 -73 150 -92 243 -93 440 0 180 10 250 56 394
107 328 329 526 654 582 80 13 350 12 458 -2z"/>
<path d="M7450 6489 c-524 -50 -812 -367 -860 -947 -6 -69 -10 -744 -10 -1634
l0 -1518 535 0 535 0 0 43 c0 23 -4 47 -8 54 -4 6 -36 16 -72 23 -244 43 -401
140 -483 298 -75 144 -85 233 -90 805 -4 389 -3 427 12 427 9 -1 45 -8 81 -16
101 -23 393 -29 515 -10 392 60 697 262 860 569 146 275 221 650 186 932 -43
349 -272 703 -554 855 -126 68 -243 102 -416 119 -112 12 -108 12 -231 0z
m288 -394 c232 -73 417 -300 463 -570 16 -93 6 -313 -21 -438 -61 -289 -164
-478 -323 -591 -190 -135 -398 -181 -700 -157 -84 7 -156 16 -160 20 -5 5 -6
266 -4 582 3 542 5 579 25 661 53 217 138 355 275 442 123 79 295 98 445 51z"/>
</g>
</svg>
